<?xml version="1.0" encoding="UTF-8"?><svg id="Layer_1" xmlns="http://www.w3.org/2000/svg" viewBox="0 0 100.7 20.2"><defs><style>.cls-1{fill:#231f20;}.cls-1,.cls-2{stroke:#231f20;stroke-miterlimit:10;stroke-width:.2px;}.cls-2{fill:#ebec89;}</style></defs><rect class="cls-2" x=".1" y=".1" width="100.5" height="19.9" rx="10" ry="10"/><path class="cls-1" d="M7.6,12.1h1.1c0,.5.2,1,.4,1.3s.5.4.9.4.6,0,.8-.2.4-.3.4-.6.1-.6.1-1.1v-6.1h1.2v6.1c0,.7,0,1.3-.3,1.7s-.5.7-.9.9-.8.3-1.4.3c-.8,0-1.4-.2-1.8-.7s-.6-1.1-.6-2Z"/><path class="cls-1" d="M13.5,14.7l3.4-8.9h1.3l3.6,8.9h-1.3l-1-2.7h-3.7l-1,2.7h-1.3ZM16,11.1h3l-.9-2.5c-.3-.7-.5-1.4-.6-1.8-.1.6-.3,1.1-.5,1.7l-1,2.6Z"/><path class="cls-1" d="M22.7,14.7V5.8h1.2v4.4l4.4-4.4h1.6l-3.7,3.6,3.9,5.3h-1.6l-3.2-4.5-1.5,1.4v3.1h-1.2Z"/><path class="cls-1" d="M36.9,5.8h1.2v5.1c0,.9-.1,1.6-.3,2.1s-.6,1-1.1,1.3-1.2.5-2.1.5-1.5-.1-2-.4-.9-.7-1.1-1.2-.3-1.3-.3-2.2v-5.1h1.2v5.1c0,.8,0,1.3.2,1.7s.4.6.7.8.8.3,1.3.3c.9,0,1.5-.2,1.9-.6s.6-1.1.6-2.3v-5.1Z"/><path class="cls-1" d="M40,14.7V5.8h3.3c.7,0,1.2,0,1.6.3s.7.5,1,.8.3.8.3,1.2-.1.7-.3,1.1-.5.6-.9.8c.5.2,1,.4,1.2.8s.4.8.4,1.3,0,.8-.3,1.2-.4.6-.7.8-.6.3-1,.4-.9.1-1.4.1h-3.4ZM41.1,9.6h1.9c.5,0,.9,0,1.1-.1.3,0,.5-.2.7-.4s.2-.5.2-.8,0-.6-.2-.8-.3-.4-.6-.5-.7-.1-1.4-.1h-1.8v2.7ZM41.1,13.7h2.2c.4,0,.6,0,.8,0,.3,0,.5-.1.7-.2s.3-.3.4-.5.2-.5.2-.7,0-.6-.3-.9-.4-.4-.7-.5-.7-.1-1.3-.1h-2.1v3.1Z"/><path class="cls-1" d="M51.7,14.7V5.8h1.2v4.4l4.4-4.4h1.6l-3.7,3.6,3.9,5.3h-1.6l-3.2-4.5-1.5,1.4v3.1h-1.2Z"/><path class="cls-1" d="M59.1,14.7l3.4-8.9h1.3l3.6,8.9h-1.3l-1-2.7h-3.7l-1,2.7h-1.3ZM61.7,11.1h3l-.9-2.5c-.3-.7-.5-1.4-.6-1.8-.1.6-.3,1.1-.5,1.7l-1,2.6Z"/><path class="cls-1" d="M68.3,14.7V5.8h1.2l4.7,7v-7h1.1v8.9h-1.2l-4.7-7v7h-1.1Z"/><path class="cls-1" d="M77.3,14.7V5.8h1.2l4.7,7v-7h1.1v8.9h-1.2l-4.7-7v7h-1.1Z"/><path class="cls-1" d="M85.3,14.7l3.4-8.9h1.3l3.6,8.9h-1.3l-1-2.7h-3.7l-1,2.7h-1.3ZM87.9,11.1h3l-.9-2.5c-.3-.7-.5-1.4-.6-1.8-.1.6-.3,1.1-.5,1.7l-1,2.6Z"/></svg>